<?xml version="1.0" standalone="no"?>
<!DOCTYPE svg PUBLIC "-//W3C//DTD SVG 20010904//EN"
 "http://www.w3.org/TR/2001/REC-SVG-20010904/DTD/svg10.dtd">
<svg version="1.0" xmlns="http://www.w3.org/2000/svg"
 width="311.000000pt" height="111.000000pt" viewBox="0 0 311.000000 111.000000"
 preserveAspectRatio="xMidYMid meet">

<g transform="translate(0.000000,111.000000) scale(0.100000,-0.100000)"
fill="#000000" stroke="none">
<path d="M1895 850 c-11 -5 -33 -9 -49 -9 -24 -1 -26 -3 -16 -15 6 -8 21 -17
33 -19 14 -3 8 -5 -14 -6 -20 0 -58 6 -85 15 -66 20 -138 29 -129 15 3 -6 14
-11 24 -11 10 0 25 -7 32 -16 12 -15 11 -16 -11 -9 -14 4 -29 9 -35 11 -5 3
-10 -7 -10 -20 0 -22 4 -24 30 -20 25 4 26 3 10 -5 -12 -6 -14 -10 -6 -10 8
-1 20 -9 27 -18 13 -17 15 -16 34 7 11 14 25 31 31 38 7 8 34 12 84 10 79 -3
93 3 97 42 3 27 -14 34 -47 20z"/>
<path d="M1512 791 c-28 -18 -39 -31 -30 -34 7 -3 0 -6 -17 -7 -16 -1 -57 -7
-90 -14 l-60 -13 143 -7 c144 -7 230 -23 147 -27 -23 -1 -31 -4 -18 -6 12 -2
27 -11 33 -19 11 -12 7 -14 -24 -14 -22 0 -35 -4 -31 -10 4 -6 -8 -10 -29 -10
-22 0 -35 -4 -33 -12 1 -6 -8 -17 -20 -23 -13 -7 -20 -15 -16 -18 3 -4 -5 -7
-18 -8 -23 -1 -23 -1 6 -14 41 -19 10 -19 -53 0 -60 18 -60 35 1 36 28 0 36 3
24 8 -18 6 -18 7 0 23 10 8 31 18 46 22 20 5 27 11 23 21 -4 11 2 15 19 15 14
0 25 4 25 8 0 4 -45 6 -100 4 -116 -5 -233 5 -228 20 2 5 6 8 10 6 3 -2 14 4
24 13 11 9 33 21 49 27 17 6 23 11 15 11 -8 0 -41 -10 -73 -23 -52 -22 -61
-23 -85 -10 -17 9 -54 13 -102 12 -41 0 -63 -3 -47 -5 50 -8 33 -24 -38 -35
-11 -2 17 -9 63 -17 57 -9 82 -18 82 -27 0 -8 5 -14 11 -14 5 0 7 5 4 10 -3 6
-3 10 2 10 22 0 186 -30 191 -34 2 -3 -1 -12 -8 -21 -10 -13 -9 -15 7 -15 10
0 24 5 31 12 9 9 12 8 12 -5 0 -20 -46 -30 -146 -31 -40 -1 -67 -4 -61 -8 7
-5 3 -8 -10 -8 -13 0 -23 5 -23 11 0 17 -127 7 -146 -12 -38 -39 48 -53 211
-34 62 7 69 6 57 -7 -32 -39 -212 -56 -297 -28 -128 41 -81 113 83 127 78 6
193 -13 171 -29 -10 -7 -4 -8 20 -4 18 3 42 6 52 6 33 0 20 15 -13 16 -18 0
-60 7 -93 14 -100 21 -228 7 -329 -35 -15 -7 -17 -5 -11 6 5 8 -2 5 -14 -5
-50 -45 -6 -96 108 -122 77 -19 244 -18 306 2 41 12 114 15 419 14 350 -1 368
0 361 17 -16 38 -16 50 -1 62 14 12 16 10 16 -11 0 -28 21 -50 65 -70 26 -11
-12 -14 -280 -18 l-310 -5 455 -3 c460 -2 514 1 552 35 9 8 21 12 26 9 5 -3
19 5 31 18 25 26 20 48 -16 77 -12 10 -11 5 5 -15 18 -24 20 -31 9 -50 -12
-21 -12 -21 -15 5 -2 15 -11 34 -20 42 -23 20 -105 47 -145 47 -25 0 -29 2
-17 11 12 9 12 10 -3 5 -10 -3 -28 -6 -39 -6 -38 0 -12 -11 52 -21 106 -17
146 -48 112 -88 -20 -24 -117 -51 -184 -51 -114 0 -217 46 -192 87 13 21 81
30 97 14 8 -8 8 -11 -1 -11 -22 0 -12 -30 14 -40 44 -17 149 -12 174 8 20 16
21 19 6 31 -9 7 -37 16 -62 19 -34 4 -48 10 -51 23 -3 11 -13 19 -22 20 -11 0
-9 3 7 9 12 5 22 13 22 17 0 5 10 13 23 18 13 6 21 17 19 28 -3 17 -1 17 27 2
17 -8 31 -13 31 -10 0 12 -111 57 -126 51 -8 -3 -13 -2 -10 3 6 9 -17 22 -37
20 -7 0 -3 -4 8 -9 18 -8 18 -9 -5 -9 -18 -1 -21 -4 -11 -10 7 -5 10 -14 7
-20 -5 -8 -12 -7 -22 4 -21 21 -108 20 -129 -1 -13 -13 -22 -15 -48 -6 l-32
10 28 1 c58 2 14 19 -65 25 -46 4 -104 9 -130 12 -37 5 -48 3 -48 -8 0 -15
-65 -48 -92 -48 -17 0 -113 87 -119 107 -3 9 -18 4 -47 -16z m373 -72 c41 -6
75 -14 75 -18 0 -4 -51 -7 -112 -8 -116 -1 -122 0 -53 13 l40 7 -30 7 c-48 12
-2 11 80 -1z m-827 -16 c-10 -2 -26 -2 -35 0 -10 3 -2 5 17 5 19 0 27 -2 18
-5z m107 -12 c26 -6 31 -9 15 -9 -14 -1 -43 3 -65 7 -26 6 -31 9 -15 9 14 1
43 -3 65 -7z m930 -22 c-16 -5 -105 -23 -197 -39 -161 -28 -217 -44 -203 -58
4 -4 23 -12 43 -19 35 -11 34 -12 -23 -6 -89 8 -96 16 -47 48 35 23 68 31 229
55 204 30 245 34 198 19z m-130 -79 c-22 -10 -46 -19 -53 -19 -7 -1 -10 -6 -6
-12 5 -9 -4 -10 -32 -4 -21 5 -57 11 -79 15 -38 7 -37 8 20 9 33 1 85 8 115
16 74 18 83 17 35 -5z m305 -5 c7 -8 22 -15 34 -15 12 0 30 -6 39 -12 16 -12
15 -13 -5 -14 -13 -1 -34 -5 -48 -9 -19 -5 -21 -4 -10 4 13 9 12 12 -5 25 -11
9 -28 16 -38 16 -10 0 -15 5 -12 10 9 15 31 12 45 -5z m-1457 -20 c-3 -9 -8
-14 -10 -11 -3 3 -2 9 2 15 9 16 15 13 8 -4z m235 -7 c-16 -5 -28 -14 -28 -19
0 -6 -5 -7 -12 -3 -15 10 19 34 46 33 17 0 16 -2 -6 -11z m487 -48 c27 -11
-59 -11 -95 0 -20 6 -14 8 25 8 28 0 59 -3 70 -8z m380 -10 c12 -5 -45 -8
-145 -7 -126 0 -147 2 -90 7 113 10 213 10 235 0z"/>
<path d="M2140 775 c19 -7 42 -13 50 -13 8 0 -1 6 -20 13 -19 7 -42 13 -50 13
-8 0 1 -6 20 -13z"/>
<path d="M908 713 c6 -2 18 -2 25 0 6 3 1 5 -13 5 -14 0 -19 -2 -12 -5z"/>
<path d="M763 463 c9 -2 23 -2 30 0 6 3 -1 5 -18 5 -16 0 -22 -2 -12 -5z"/>
<path d="M637 340 l-24 -50 33 0 c27 0 36 6 50 31 15 31 16 31 30 10 19 -27
59 -27 102 -1 33 20 40 14 22 -21 -10 -17 -7 -19 23 -19 29 0 35 5 55 45 12
25 22 48 22 50 0 15 -72 1 -117 -22 l-52 -27 -21 27 c-17 21 -30 27 -60 27
-37 0 -41 -3 -63 -50z"/>
<path d="M1015 340 l-49 -50 37 0 c20 0 37 5 37 10 0 6 20 10 45 10 25 0 45
-4 45 -10 0 -5 16 -10 35 -10 32 0 35 3 35 28 0 66 -7 72 -74 72 -61 0 -62 -1
-111 -50z m115 5 c0 -21 -5 -25 -30 -25 -34 0 -37 6 -13 32 23 26 43 23 43 -7z"/>
<path d="M1305 376 c-34 -15 -62 -63 -46 -79 16 -16 173 -12 201 4 l25 14 -34
3 c-18 2 -38 -1 -44 -7 -12 -12 -70 -15 -80 -5 -13 13 23 64 46 65 34 2 52 -2
55 -12 6 -15 72 -11 72 5 0 8 -7 17 -16 20 -28 11 -148 6 -179 -8z"/>
<path d="M1552 345 c-12 -25 -22 -48 -22 -50 0 -3 13 -5 30 -5 19 0 33 7 40
20 8 15 21 20 56 20 41 0 45 -2 39 -20 -5 -17 -2 -20 24 -20 27 0 34 6 56 50
l25 50 -35 0 c-29 0 -37 -5 -45 -25 -8 -22 -16 -25 -55 -25 -49 0 -50 1 -35
31 10 17 7 19 -23 19 -29 0 -35 -5 -55 -45z"/>
<path d="M1845 340 l-25 -50 35 0 c35 0 51 17 69 78 7 19 4 22 -23 22 -27 0
-34 -6 -56 -50z"/>
<path d="M1982 340 l-21 -50 33 0 c28 0 36 5 47 31 l13 32 28 -32 c22 -25 36
-31 67 -31 36 0 40 3 59 48 l21 47 -32 3 c-17 2 -33 -1 -35 -6 -1 -5 -9 -18
-17 -28 -14 -18 -16 -18 -39 9 -19 21 -34 27 -64 27 -38 0 -40 -2 -60 -50z"/>
<path d="M2282 345 c-12 -25 -22 -48 -22 -50 0 -3 46 -4 103 -3 81 2 88 3 34
5 -88 5 -87 27 1 31 73 3 84 17 14 17 -78 0 -65 20 16 23 108 4 88 22 -26 22
l-98 0 -22 -45z"/>
<path d="M870 251 c0 -6 5 -13 10 -16 6 -3 10 1 10 9 0 9 -4 16 -10 16 -5 0
-10 -4 -10 -9z"/>
<path d="M935 250 c3 -5 8 -10 11 -10 2 0 4 5 4 10 0 6 -5 10 -11 10 -5 0 -7
-4 -4 -10z"/>
<path d="M1031 244 c0 -11 3 -14 6 -6 3 7 2 16 -1 19 -3 4 -6 -2 -5 -13z"/>
<path d="M1120 244 c0 -8 5 -12 10 -9 6 3 10 10 10 16 0 5 -4 9 -10 9 -5 0
-10 -7 -10 -16z"/>
<path d="M1270 245 c0 -8 5 -15 10 -15 6 0 10 7 10 15 0 8 -4 15 -10 15 -5 0
-10 -7 -10 -15z"/>
<path d="M1420 244 c0 -8 5 -12 10 -9 6 3 10 10 10 16 0 5 -4 9 -10 9 -5 0
-10 -7 -10 -16z"/>
<path d="M1472 251 c-11 -7 -11 -9 2 -14 10 -4 16 -1 16 8 0 17 -1 17 -18 6z"/>
<path d="M1660 249 c0 -5 5 -7 10 -4 6 3 10 8 10 11 0 2 -4 4 -10 4 -5 0 -10
-5 -10 -11z"/>
<path d="M1810 245 c0 -8 5 -15 10 -15 6 0 10 7 10 15 0 8 -4 15 -10 15 -5 0
-10 -7 -10 -15z"/>
<path d="M1950 250 c0 -5 5 -10 10 -10 6 0 10 5 10 10 0 6 -4 10 -10 10 -5 0
-10 -4 -10 -10z"/>
<path d="M2020 250 c0 -5 5 -10 10 -10 6 0 10 5 10 10 0 6 -4 10 -10 10 -5 0
-10 -4 -10 -10z"/>
<path d="M2110 251 c0 -6 5 -13 10 -16 6 -3 10 1 10 9 0 9 -4 16 -10 16 -5 0
-10 -4 -10 -9z"/>
<path d="M2175 250 c3 -5 8 -10 11 -10 2 0 4 5 4 10 0 6 -5 10 -11 10 -5 0 -7
-4 -4 -10z"/>
</g>
</svg>
