<?xml version="1.0" encoding="UTF-8" standalone="no" ?>
<!DOCTYPE svg PUBLIC "-//W3C//DTD SVG 1.1//EN" "http://www.w3.org/Graphics/SVG/1.1/DTD/svg11.dtd">
<svg xmlns="http://www.w3.org/2000/svg" xmlns:xlink="http://www.w3.org/1999/xlink" version="1.1" width="1280" height="1024" viewBox="0 0 1280 1024" xml:space="preserve">
<desc>Created with Fabric.js 5.3.0</desc>
<defs>
</defs>
<g transform="matrix(1 0 0 1 640 512)" id="background-logo"  >
<rect style="stroke: none; stroke-width: 0; stroke-dasharray: none; stroke-linecap: butt; stroke-dashoffset: 0; stroke-linejoin: miter; stroke-miterlimit: 4; fill: rgb(0,0,0); fill-rule: nonzero; opacity: 1;"  paint-order="stroke"  x="-640" y="-512" rx="0" ry="0" width="1280" height="1024" />
</g>
<g transform="matrix(2.964058212985349 0 0 2.9640582129853486 640.7571853019648 425.4749630384471)" id="logo-logo"  >
<g style=""  paint-order="stroke"   >
		<g transform="matrix(0.13019047620862428 0 0 -0.13019047620862434 69.6060883429248 -23.127003646080965)"  >
<path style="stroke: none; stroke-width: 1; stroke-dasharray: none; stroke-linecap: butt; stroke-dashoffset: 0; stroke-linejoin: miter; stroke-miterlimit: 4; fill: rgb(255,255,255); fill-rule: nonzero; opacity: 1;"  paint-order="stroke"  transform=" translate(-1471.6155576676506, -1176.8285)" d="M 1695.95 1027.68 C 1675.19 1013.32 1654.06 1002.72 1632.24 994.8670000000001 C 1660.18 1068.8200000000002 1649.3 1134.0700000000002 1649.11 1135.1200000000001 L 1645.9099999999999 1152.73 L 1631.2599999999998 1142.54 C 1553.2799999999997 1088.47 1385.0899999999997 1066.96 1229.8099999999997 1056.8999999999999 C 1206.2199999999998 1121.59 1157.8999999999996 1176.27 1095.7399999999998 1211.2299999999998 C 1095.9899999999998 1211.2299999999998 1096.2399999999998 1211.2999999999997 1096.4699999999998 1211.2999999999997 C 1141.2199999999998 1215.6299999999997 1186.8799999999999 1218.0999999999997 1231.0499999999997 1220.5099999999998 C 1286.7299999999998 1223.4699999999998 1344.1899999999998 1226.6299999999997 1400.7899999999997 1233.4299999999998 C 1466.7799999999997 1241.32 1527.1499999999996 1251.09 1585.3499999999997 1263.3899999999999 C 1645.7699999999998 1276.11 1694.6499999999996 1289.9599999999998 1739.1999999999996 1307.1399999999999 C 1763.8499999999997 1316.58 1785.3499999999997 1326.4199999999998 1805.0099999999995 1337.2299999999998 C 1805.9999999999995 1337.7199999999998 1807.5999999999995 1338.5899999999997 1809.6999999999996 1339.6399999999999 C 1824.6499999999996 1347.36 1835.7099999999996 1353.54 1843.7399999999996 1358.79 C 1852.3299999999995 1302.69 1860.2999999999995 1140.86 1695.9499999999996 1027.6799999999998" stroke-linecap="round" />
</g>
		<g transform="matrix(0.13019047620862428 0 0 -0.13019047620862434 64.70441691367 1.3813535001926027)"  >
<path style="stroke: none; stroke-width: 1; stroke-dasharray: none; stroke-linecap: butt; stroke-dashoffset: 0; stroke-linejoin: miter; stroke-miterlimit: 4; fill: rgb(255,255,255); fill-rule: nonzero; opacity: 1;"  paint-order="stroke"  transform=" translate(-1432.7191763093656, -985.6795)" d="M 1493.22 868.508 C 1486.18 864.426 1479.33 860.9770000000001 1472.52 857.8090000000001 C 1491.44 912.3130000000001 1482.47 959.6480000000001 1482.29 960.445 L 1478.7 977.945 L 1464.31 967.4300000000001 C 1428.59 941.484 1348.83 934.551 1261.9499999999998 931.59 C 1260.6499999999999 938.02 1259.0399999999997 944.5 1257.1299999999999 951.047 C 1254.04 961.7420000000001 1250.1 971.945 1245.3899999999999 981.457 C 1244.3999999999999 999.504 1241.56 1017.16 1236.9299999999998 1034.23 C 1385.83 1043.99 1541.6599999999999 1064.06 1628.1599999999999 1113.55 C 1630.58 1067.8999999999999 1623.85 943.8829999999999 1493.2199999999998 868.5079999999999" stroke-linecap="round" />
</g>
		<g transform="matrix(0.13019047620862428 0 0 -0.13019047620862434 51.95876929284577 20.00510112183622)"  >
<path style="stroke: none; stroke-width: 1; stroke-dasharray: none; stroke-linecap: butt; stroke-dashoffset: 0; stroke-linejoin: miter; stroke-miterlimit: 4; fill: rgb(255,255,255); fill-rule: nonzero; opacity: 1;"  paint-order="stroke"  transform=" translate(-1336.1916677821891, -844.7153416852498)" d="M 1369.21 767.238 C 1330.71 743.8090000000001 1271.0900000000001 748.7620000000001 1210.35 757.109 C 1221.6 766.3050000000001 1229.27 775.1560000000001 1233.6499999999999 781.0160000000001 C 1259.9699999999998 816.105 1270.9099999999999 860.48 1265.6 908.797 C 1346.23 911.578 1418.09 917.7620000000001 1461.71 939.254 C 1463.81 904.027 1458.13 821.238 1369.21 767.238" stroke-linecap="round" />
</g>
		<g transform="matrix(0.13019047620862428 0 0 -0.13019047620862434 -69.60658786695717 -23.127003646080965)"  >
<path style="stroke: none; stroke-width: 1; stroke-dasharray: none; stroke-linecap: butt; stroke-dashoffset: 0; stroke-linejoin: miter; stroke-miterlimit: 4; fill: rgb(255,255,255); fill-rule: nonzero; opacity: 1;"  paint-order="stroke"  transform=" translate(-401.71027920311644, -1176.7604999999999)" d="M 177.387 1027.61 C 198.145 1013.2599999999999 219.273 1002.6499999999999 241.078 994.8009999999999 C 213.15200000000002 1068.75 224.039 1134 224.223 1135.05 L 227.43800000000002 1152.6599999999999 L 242.086 1142.4699999999998 C 320.059 1088.3999999999999 488.242 1066.8899999999999 643.508 1056.8299999999997 C 667.1170000000001 1121.5199999999998 715.4300000000001 1176.1999999999998 777.5820000000001 1211.1599999999996 C 777.344 1211.1599999999996 777.0900000000001 1211.2299999999996 776.8520000000001 1211.2299999999996 C 732.113 1215.5599999999995 686.4530000000001 1218.0299999999995 642.2730000000001 1220.4399999999996 C 586.6090000000002 1223.3999999999996 529.1450000000001 1226.5599999999995 472.5430000000001 1233.3599999999997 C 406.55900000000014 1241.2599999999998 346.18400000000014 1251.0199999999998 287.98400000000015 1263.3199999999997 C 227.55500000000015 1276.0499999999997 178.68800000000016 1289.8899999999996 134.13300000000015 1307.0699999999997 C 109.48000000000016 1316.5199999999998 87.97660000000016 1326.3499999999997 68.32420000000015 1337.1599999999996 C 67.33590000000015 1337.6499999999996 65.73830000000015 1338.5099999999995 63.63670000000015 1339.5699999999997 C 48.679700000000146 1347.2899999999997 37.617200000000146 1353.4699999999998 29.589800000000146 1358.7199999999998 C 21 1302.63 13.0273 1140.8 177.387 1027.61" stroke-linecap="round" />
</g>
		<g transform="matrix(0.13019047620862428 0 0 -0.13019047620862434 -64.70491643770254 1.3813535001926027)"  >
<path style="stroke: none; stroke-width: 1; stroke-dasharray: none; stroke-linecap: butt; stroke-dashoffset: 0; stroke-linejoin: miter; stroke-miterlimit: 4; fill: rgb(255,255,255); fill-rule: nonzero; opacity: 1;"  paint-order="stroke"  transform=" translate(-440.61055131968163, -985.6089999999999)" d="M 380.105 868.438 C 387.15200000000004 864.355 394.00800000000004 860.891 400.813 857.7379999999999 C 381.90999999999997 912.242 390.859 959.574 391.04699999999997 960.3789999999999 L 394.64099999999996 977.8789999999999 L 409.03099999999995 967.3589999999999 C 444.7339999999999 941.4179999999999 524.512 934.4839999999999 611.387 931.52 C 612.6759999999999 937.949 614.281 944.43 616.199 950.977 C 619.281 961.6759999999999 623.2539999999999 971.875 627.949 981.387 C 628.93 999.434 631.7729999999999 1017.0899999999999 636.4019999999999 1034.1599999999999 C 487.49999999999994 1043.9199999999998 331.6719999999999 1063.9999999999998 245.16399999999993 1113.4799999999998 C 242.75799999999992 1067.8299999999997 249.49599999999992 943.8159999999998 380.1049999999999 868.4379999999998" stroke-linecap="round" />
</g>
		<g transform="matrix(0.13019047620862428 0 0 -0.13019047620862434 -51.95926881687819 20.005101121836304)"  >
<path style="stroke: none; stroke-width: 1; stroke-dasharray: none; stroke-linecap: butt; stroke-dashoffset: 0; stroke-linejoin: miter; stroke-miterlimit: 4; fill: rgb(255,255,255); fill-rule: nonzero; opacity: 1;"  paint-order="stroke"  transform=" translate(-537.1332393750768, -844.6479699434481)" d="M 504.117 767.168 C 542.602 743.742 602.242 748.691 662.969 757.043 C 651.719 766.238 644.066 775.066 639.6800000000001 780.949 C 613.3520000000001 816.035 602.422 860.41 607.738 908.727 C 527.105 911.512 455.23800000000006 917.672 411.6210000000001 939.188 C 409.5200000000001 903.961 415.2030000000001 821.168 504.1170000000001 767.168" stroke-linecap="round" />
</g>
		<g transform="matrix(0.13019047620862428 0 0 -0.13019047620862434 -0.000249762016267141 13.14406302564177)"  >
<path style="stroke: none; stroke-width: 1; stroke-dasharray: none; stroke-linecap: butt; stroke-dashoffset: 0; stroke-linejoin: miter; stroke-miterlimit: 4; fill: rgb(255,255,255); fill-rule: nonzero; opacity: 1;"  paint-order="stroke"  transform=" translate(-936.6649845972049, -900.4855)" d="M 1167.17 930.352 C 1167.17 840.633 981.863 823.77 981.863 934.805 C 981.863 939.137 982.051 943.199 982.363 947.102 C 982.363 947.102 982.363 947.168 982.363 947.281 C 982.422 951.7969999999999 985.195 1034.1599999999999 1087.4 1042.1399999999999 C 1172.6100000000001 1048.8 1178.7800000000002 1069.6899999999998 1179.0300000000002 1074.7499999999998 C 1179.4600000000003 1066.0899999999997 1179.5900000000001 1011.2999999999997 1110.15 1011.4799999999998 C 1152.5800000000002 1001.0299999999997 1167.17 962.4769999999997 1167.17 930.3519999999997 z M 987.004 750.93 C 980.7620000000001 744.746 972.41 744.996 964.258 747.7769999999999 C 958.02 749.8789999999999 951.9730000000001 753.5269999999999 947.1410000000001 756.8629999999999 L 947.07 756.93 C 941.086 761.125 937.0120000000001 764.957 937.0120000000001 764.957 C 937.0120000000001 764.957 936.863 764.82 936.6250000000001 764.6129999999999 C 936.4800000000001 764.7539999999999 936.3160000000001 764.8629999999999 936.3160000000001 764.8629999999999 C 936.3160000000001 764.8629999999999 932.2460000000001 761.055 926.2460000000001 756.8629999999999 L 926.1880000000001 756.7929999999999 C 921.363 753.4569999999999 915.3160000000001 749.8129999999999 909.0780000000001 747.7109999999999 C 900.9220000000001 744.93 892.5740000000001 744.68 886.3320000000001 750.8589999999999 C 869.4020000000002 767.785 906.9100000000001 876.6519999999999 936.3160000000001 876.6519999999999 C 936.4450000000002 876.6519999999999 936.6370000000002 876.6519999999999 936.7540000000001 876.5819999999999 L 936.7540000000001 876.6949999999999 C 936.8400000000001 876.6949999999999 936.9410000000001 876.7189999999999 937.0120000000002 876.7189999999999 C 966.4180000000001 876.7189999999999 1003.9300000000002 767.8589999999999 987.0040000000001 750.93 z M 706.152 930.285 C 706.152 962.406 720.7420000000001 1000.9599999999999 763.1880000000001 1011.41 C 693.7460000000001 1011.23 693.8670000000001 1066.03 694.3010000000002 1074.68 C 694.5430000000001 1069.6200000000001 700.7230000000002 1048.73 785.9340000000002 1042.0700000000002 C 888.1250000000002 1034.0900000000001 890.9060000000002 951.7300000000001 890.9690000000002 947.2150000000001 C 890.9690000000002 947.1020000000001 890.9690000000002 947.0310000000002 890.9690000000002 947.0310000000002 C 891.2730000000001 943.1330000000002 891.4650000000001 939.0700000000002 891.4650000000001 934.7340000000002 C 891.4650000000001 823.7030000000002 706.1520000000002 840.5630000000001 706.1520000000002 930.2850000000002 z M 1236.37 945.0699999999999 C 1233.2199999999998 955.93 1229.08 966.262 1224.01 975.7769999999999 C 1218.95 1116.8899999999999 1091.04 1231.08 937.012 1231.08 L 936.582 1231.08 L 936.582 1231.01 L 936.316 1231.01 C 782.2810000000001 1231.01 654.3910000000001 1116.82 649.3240000000001 975.711 C 644.2460000000001 966.191 640.105 955.859 636.965 945 C 620.145 887.102 627.3240000000001 833.469 656.9770000000001 793.934 C 665.0200000000001 783.3009999999999 694.176 750.059 750.9570000000001 742.145 L 750.9570000000001 720.1519999999999 C 750.9570000000001 701.434 755.6600000000001 685.7969999999999 764.8550000000001 673.6879999999999 L 818.3050000000002 600.9139999999999 C 826.8360000000001 589.6639999999999 838.0200000000002 581.1949999999998 850.3830000000002 575.9339999999999 L 862.1720000000001 693.4649999999999 L 874.5940000000002 570.1329999999999 C 876.0780000000002 570.0659999999999 877.5040000000001 569.891 878.9880000000002 569.891 L 923.8950000000002 569.891 L 936.3160000000003 693.4649999999999 L 936.5820000000002 690.9139999999999 L 936.5820000000002 689.2029999999999 L 936.6600000000002 690.0659999999999 L 936.7540000000002 689.1289999999999 L 936.7540000000002 690.9839999999999 L 937.0120000000003 693.531 L 949.4340000000003 569.957 L 994.3480000000003 569.957 C 995.8280000000003 569.957 997.2580000000003 570.133 998.7300000000002 570.199 L 1011.1500000000002 693.531 L 1022.9500000000002 576.0039999999999 C 1035.3100000000002 581.2659999999998 1046.4900000000002 589.7339999999999 1055.0300000000002 600.9649999999999 L 1108.4800000000002 673.7579999999999 C 1117.6800000000003 685.8629999999999 1122.3700000000003 701.4999999999999 1122.3700000000003 720.223 L 1122.3700000000003 742.2149999999999 C 1179.1500000000003 750.1289999999999 1208.3200000000004 783.3709999999999 1216.3500000000004 793.9999999999999 C 1246.0100000000004 833.5349999999999 1253.1800000000003 887.1679999999999 1236.3700000000003 945.0699999999999" stroke-linecap="round" />
</g>
		<g transform="matrix(0.13019047620862428 0 0 -0.13019047620862434 -0.000249762016267141 -46.65893222078981)"  >
<path style="stroke: none; stroke-width: 1; stroke-dasharray: none; stroke-linecap: butt; stroke-dashoffset: 0; stroke-linejoin: miter; stroke-miterlimit: 4; fill: rgb(255,255,255); fill-rule: nonzero; opacity: 1;"  paint-order="stroke"  transform=" translate(-936.655, -1356.8849999999998)" d="M 936.66 1430.05 L 954.824 1374.1599999999999 L 1013.5799999999999 1374.1599999999999 L 966.0469999999999 1339.62 L 984.2189999999999 1283.7199999999998 L 936.66 1318.2699999999998 L 889.117 1283.7199999999998 L 907.289 1339.62 L 859.73 1374.1599999999999 L 918.5120000000001 1374.1599999999999 L 936.6600000000001 1430.05" stroke-linecap="round" />
</g>
		<g transform="matrix(0.13019047620862428 0 0 -0.13019047620862434 -14.705264049780396 -39.79789412459533)"  >
<path style="stroke: none; stroke-width: 1; stroke-dasharray: none; stroke-linecap: butt; stroke-dashoffset: 0; stroke-linejoin: miter; stroke-miterlimit: 4; fill: rgb(255,255,255); fill-rule: nonzero; opacity: 1;"  paint-order="stroke"  transform=" translate(-823.2379999999998, -1299.695)" d="M 823.23 1346.74 L 834.91 1310.8 L 872.703 1310.8 L 842.117 1288.59 L 853.805 1252.6499999999999 L 823.2299999999999 1274.86 L 792.6599999999999 1252.6499999999999 L 804.3399999999998 1288.59 L 773.7729999999998 1310.8 L 811.5549999999998 1310.8 L 823.2299999999998 1346.74" stroke-linecap="round" />
</g>
		<g transform="matrix(0.13019047620862428 0 0 -0.13019047620862434 15.687702621123094 -39.79789412459533)"  >
<path style="stroke: none; stroke-width: 1; stroke-dasharray: none; stroke-linecap: butt; stroke-dashoffset: 0; stroke-linejoin: miter; stroke-miterlimit: 4; fill: rgb(255,255,255); fill-rule: nonzero; opacity: 1;"  paint-order="stroke"  transform=" translate(-1059.2400000000002, -1299.695)" d="M 1059.24 1346.74 L 1070.92 1310.8 L 1108.71 1310.8 L 1078.13 1288.59 L 1089.8000000000002 1252.6499999999999 L 1059.2400000000002 1274.86 L 1028.6600000000003 1252.6499999999999 L 1040.3300000000004 1288.59 L 1009.7700000000004 1310.8 L 1047.5600000000004 1310.8 L 1059.2400000000005 1346.74" stroke-linecap="round" />
</g>
</g>
</g>
<g transform="matrix(1.9211538461538462 0 0 1.9211538461538462 639.880413798017 662.7544856617382)" id="text-logo"  >
<g style=""  paint-order="stroke"   >
		<g transform="matrix(1 0 0 1 0 0)" id="text-logo-path-0"  >
<path style="stroke: none; stroke-width: 0.49443015190166917; stroke-dasharray: none; stroke-linecap: butt; stroke-dashoffset: 0; stroke-linejoin: miter; stroke-miterlimit: 4; fill: rgb(255,255,255); fill-rule: nonzero; opacity: 1;"  paint-order="stroke"  transform=" translate(-266.7965558987712, 11.9)" d="M 0.41 -23.46 L 4.01 -0.34 C 4.05 -0.17 4.22 0 4.42 0 L 7.48 0 C 7.65 0 7.85 -0.14 7.89 -0.34 L 9.62 -11.56 C 9.66 -11.76 9.72 -11.73 9.76 -11.56 L 11.49 -0.34 C 11.53 -0.17 11.7 0 11.9 0 L 14.96 0 C 15.13 0 15.33 -0.14 15.37 -0.34 L 18.97 -23.46 C 19.01 -23.63 18.9 -23.8 18.7 -23.8 L 15.64 -23.8 C 15.47 -23.8 15.27 -23.66 15.27 -23.46 L 13.46 -9.55 C 13.46 -9.35 13.4 -9.38 13.4 -9.55 L 11.59 -23.46 C 11.59 -23.63 11.42 -23.8 11.22 -23.8 L 8.16 -23.8 C 7.99 -23.8 7.79 -23.66 7.79 -23.46 L 5.98 -9.55 C 5.98 -9.35 5.92 -9.38 5.92 -9.55 L 4.11 -23.46 C 4.11 -23.63 3.94 -23.8 3.74 -23.8 L 0.68 -23.8 C 0.51 -23.8 0.37 -23.66 0.41 -23.46 Z M 32.3 -23.46 L 32.3 -0.34 C 32.3 -0.17 32.44 0 32.64 0 L 41.14 0 C 41.31 0 41.48 -0.14 41.48 -0.34 L 41.48 -3.4 C 41.48 -3.57 41.34 -3.74 41.14 -3.74 L 36.38 -3.74 C 36.21 -3.74 36.04 -3.88 36.04 -4.08 L 36.04 -9.69 C 36.04 -9.86 36.18 -10.03 36.38 -10.03 L 39.44 -10.03 C 39.61 -10.03 39.78 -10.17 39.78 -10.37 L 39.78 -13.43 C 39.78 -13.6 39.64 -13.77 39.44 -13.77 L 36.38 -13.77 C 36.21 -13.77 36.04 -13.91 36.04 -14.11 L 36.04 -19.72 C 36.04 -19.89 36.18 -20.06 36.38 -20.06 L 41.14 -20.06 C 41.31 -20.06 41.48 -20.2 41.48 -20.4 L 41.48 -23.46 C 41.48 -23.63 41.34 -23.8 41.14 -23.8 L 32.64 -23.8 C 32.47 -23.8 32.3 -23.66 32.3 -23.46 Z M 62.29 -16.12 L 65.35 -16.12 C 65.52 -16.12 65.69 -16.25 65.69 -16.46 L 65.69 -18.9 C 65.69 -21.79 63.31 -24.14 60.45 -24.14 C 57.43 -24.14 55.15 -21.69 55.15 -18.9 L 55.15 -16.12 C 55.15 -11.9 61.95 -9.96 61.95 -7.68 L 61.95 -4.9 C 61.95 -3.81 61.54 -3.4 60.38 -3.4 C 59.3 -3.4 58.89 -3.81 58.89 -4.9 L 58.89 -7.34 C 58.89 -7.55 58.72 -7.68 58.55 -7.68 L 55.49 -7.68 C 55.28 -7.68 55.15 -7.51 55.15 -7.34 L 55.15 -4.9 C 55.15 -2.01 57.53 0.34 60.38 0.34 C 63.41 0.34 65.69 -2.11 65.69 -4.9 L 65.69 -7.68 C 65.69 -12.07 58.89 -14.01 58.89 -16.12 L 58.89 -18.9 C 58.89 -19.99 59.3 -20.4 60.45 -20.4 C 61.54 -20.4 61.95 -19.99 61.95 -18.9 L 61.95 -16.46 C 61.95 -16.29 62.08 -16.12 62.29 -16.12 Z M 79.36 -23.46 L 79.36 -0.34 C 79.36 -0.17 79.49 0 79.7 0 L 88.2 0 C 88.37 0 88.54 -0.14 88.54 -0.34 L 88.54 -3.4 C 88.54 -3.57 88.4 -3.74 88.2 -3.74 L 83.1 -3.74 L 83.1 -23.46 C 83.1 -23.63 82.96 -23.8 82.76 -23.8 L 79.7 -23.8 C 79.53 -23.8 79.36 -23.66 79.36 -23.46 Z M 102.2 -23.46 L 102.2 -0.34 C 102.2 -0.17 102.34 0 102.54 0 L 111.04 0 C 111.21 0 111.38 -0.14 111.38 -0.34 L 111.38 -3.4 C 111.38 -3.57 111.25 -3.74 111.04 -3.74 L 106.28 -3.74 C 106.11 -3.74 105.94 -3.88 105.94 -4.08 L 105.94 -9.69 C 105.94 -9.86 106.08 -10.03 106.28 -10.03 L 109.34 -10.03 C 109.51 -10.03 109.68 -10.17 109.68 -10.37 L 109.68 -13.43 C 109.68 -13.6 109.55 -13.77 109.34 -13.77 L 106.28 -13.77 C 106.11 -13.77 105.94 -13.91 105.94 -14.11 L 105.94 -19.72 C 105.94 -19.89 106.08 -20.06 106.28 -20.06 L 111.04 -20.06 C 111.21 -20.06 111.38 -20.2 111.38 -20.4 L 111.38 -23.46 C 111.38 -23.63 111.25 -23.8 111.04 -23.8 L 102.54 -23.8 C 102.37 -23.8 102.2 -23.66 102.2 -23.46 Z M 124.75 -23.46 L 128.38 -9.96 L 128.38 -0.34 C 128.38 -0.17 128.52 0 128.72 0 L 131.78 0 C 131.95 0 132.12 -0.14 132.12 -0.34 L 132.12 -9.96 L 135.76 -23.46 C 135.83 -23.66 135.69 -23.8 135.52 -23.8 L 132.46 -23.8 C 132.26 -23.8 132.09 -23.63 132.06 -23.46 L 130.25 -15.13 L 128.45 -23.46 C 128.42 -23.66 128.21 -23.8 128.04 -23.8 L 124.98 -23.8 C 124.78 -23.8 124.68 -23.63 124.75 -23.46 Z M 168.1 -23.46 L 168.1 -0.34 C 168.1 -0.17 168.23 0 168.44 0 L 171.5 0 C 171.67 0 171.84 -0.14 171.84 -0.34 L 171.84 -11.56 C 171.84 -11.73 171.87 -11.76 171.94 -11.56 L 174.83 -0.34 C 174.86 -0.17 175.03 0 175.24 0 L 178.3 0 C 178.5 0 178.67 -0.17 178.7 -0.34 L 181.59 -11.56 C 181.66 -11.73 181.7 -11.76 181.7 -11.56 L 181.7 -0.34 C 181.7 -0.17 181.83 0 182.04 0 L 185.1 0 C 185.27 0 185.44 -0.14 185.44 -0.34 L 185.44 -23.46 C 185.44 -23.63 185.3 -23.8 185.1 -23.8 L 181.36 -23.8 C 181.15 -23.8 180.98 -23.63 180.95 -23.46 L 176.83 -6.63 C 176.8 -6.46 176.73 -6.43 176.7 -6.63 L 172.58 -23.46 C 172.55 -23.63 172.38 -23.8 172.18 -23.8 L 168.44 -23.8 C 168.27 -23.8 168.1 -23.66 168.1 -23.46 Z M 199.1 -4.9 C 199.1 -2.11 201.38 0.34 204.41 0.34 C 207.26 0.34 209.64 -2.01 209.64 -4.9 L 209.64 -18.9 C 209.64 -21.79 207.26 -24.14 204.41 -24.14 C 201.38 -24.14 199.1 -21.69 199.1 -18.9 Z M 202.84 -4.9 L 202.84 -18.9 C 202.84 -19.99 203.25 -20.4 204.41 -20.4 C 205.5 -20.4 205.9 -19.99 205.9 -18.9 L 205.9 -4.9 C 205.9 -3.81 205.5 -3.4 204.41 -3.4 C 203.25 -3.4 202.84 -3.81 202.84 -4.9 Z M 223.31 -23.46 L 223.31 -20.4 C 223.31 -20.2 223.48 -20.06 223.65 -20.06 L 226.37 -20.06 C 226.54 -20.06 226.71 -19.92 226.71 -19.72 L 226.71 -0.34 C 226.71 -0.17 226.85 0 227.05 0 L 230.11 0 C 230.28 0 230.45 -0.14 230.45 -0.34 L 230.45 -19.72 C 230.45 -19.89 230.59 -20.06 230.79 -20.06 L 233.51 -20.06 C 233.68 -20.06 233.85 -20.2 233.85 -20.4 L 233.85 -23.46 C 233.85 -23.63 233.72 -23.8 233.51 -23.8 L 223.65 -23.8 C 223.45 -23.8 223.31 -23.63 223.31 -23.46 Z M 247.52 -4.9 C 247.52 -2.11 249.8 0.34 252.82 0.34 C 255.68 0.34 258.06 -2.01 258.06 -4.9 L 258.06 -18.9 C 258.06 -21.79 255.68 -24.14 252.82 -24.14 C 249.8 -24.14 247.52 -21.69 247.52 -18.9 Z M 251.26 -4.9 L 251.26 -18.9 C 251.26 -19.99 251.67 -20.4 252.82 -20.4 C 253.91 -20.4 254.32 -19.99 254.32 -18.9 L 254.32 -4.9 C 254.32 -3.81 253.91 -3.4 252.82 -3.4 C 251.67 -3.4 251.26 -3.81 251.26 -4.9 Z M 278.87 -16.12 L 281.93 -16.12 C 282.1 -16.12 282.27 -16.25 282.27 -16.46 L 282.27 -18.9 C 282.27 -21.79 279.89 -24.14 277.03 -24.14 C 274.01 -24.14 271.73 -21.69 271.73 -18.9 L 271.73 -16.12 C 271.73 -11.9 278.53 -9.96 278.53 -7.68 L 278.53 -4.9 C 278.53 -3.81 278.12 -3.4 276.96 -3.4 C 275.88 -3.4 275.47 -3.81 275.47 -4.9 L 275.47 -7.34 C 275.47 -7.55 275.3 -7.68 275.13 -7.68 L 272.07 -7.68 C 271.86 -7.68 271.73 -7.51 271.73 -7.34 L 271.73 -4.9 C 271.73 -2.01 274.11 0.34 276.96 0.34 C 279.99 0.34 282.27 -2.11 282.27 -4.9 L 282.27 -7.68 C 282.27 -12.07 275.47 -14.01 275.47 -16.12 L 275.47 -18.9 C 275.47 -19.99 275.88 -20.4 277.03 -20.4 C 278.12 -20.4 278.53 -19.99 278.53 -18.9 L 278.53 -16.46 C 278.53 -16.29 278.66 -16.12 278.87 -16.12 Z M 314.91 -23.46 L 314.91 -0.34 C 314.91 -0.17 315.04 0 315.25 0 L 323.75 0 C 323.92 0 324.09 -0.14 324.09 -0.34 L 324.09 -3.4 C 324.09 -3.57 323.95 -3.74 323.75 -3.74 L 318.99 -3.74 C 318.82 -3.74 318.65 -3.88 318.65 -4.08 L 318.65 -9.69 C 318.65 -9.86 318.78 -10.03 318.99 -10.03 L 322.05 -10.03 C 322.22 -10.03 322.39 -10.17 322.39 -10.37 L 322.39 -13.43 C 322.39 -13.6 322.25 -13.77 322.05 -13.77 L 318.99 -13.77 C 318.82 -13.77 318.65 -13.91 318.65 -14.11 L 318.65 -19.72 C 318.65 -19.89 318.78 -20.06 318.99 -20.06 L 323.75 -20.06 C 323.92 -20.06 324.09 -20.2 324.09 -20.4 L 324.09 -23.46 C 324.09 -23.63 323.95 -23.8 323.75 -23.8 L 315.25 -23.8 C 315.08 -23.8 314.91 -23.66 314.91 -23.46 Z M 344.9 -16.12 L 347.96 -16.12 C 348.13 -16.12 348.3 -16.25 348.3 -16.46 L 348.3 -18.9 C 348.3 -21.79 345.92 -24.14 343.06 -24.14 C 340.03 -24.14 337.76 -21.69 337.76 -18.9 L 337.76 -16.12 C 337.76 -11.9 344.56 -9.96 344.56 -7.68 L 344.56 -4.9 C 344.56 -3.81 344.15 -3.4 342.99 -3.4 C 341.9 -3.4 341.5 -3.81 341.5 -4.9 L 341.5 -7.34 C 341.5 -7.55 341.33 -7.68 341.16 -7.68 L 338.1 -7.68 C 337.89 -7.68 337.76 -7.51 337.76 -7.34 L 337.76 -4.9 C 337.76 -2.01 340.14 0.34 342.99 0.34 C 346.02 0.34 348.3 -2.11 348.3 -4.9 L 348.3 -7.68 C 348.3 -12.07 341.5 -14.01 341.5 -16.12 L 341.5 -18.9 C 341.5 -19.99 341.9 -20.4 343.06 -20.4 C 344.15 -20.4 344.56 -19.99 344.56 -18.9 L 344.56 -16.46 C 344.56 -16.29 344.69 -16.12 344.9 -16.12 Z M 361.96 -23.46 L 361.96 -0.34 C 361.96 -0.17 362.1 0 362.3 0 L 365.36 0 C 365.53 0 365.7 -0.14 365.7 -0.34 L 365.7 -10.37 C 365.7 -10.17 365.87 -10.03 366.04 -10.03 L 367.2 -10.03 C 370.23 -10.03 372.5 -12.48 372.5 -15.27 L 372.5 -18.56 C 372.5 -21.35 370.23 -23.8 367.2 -23.8 L 362.3 -23.8 C 362.13 -23.8 361.96 -23.66 361.96 -23.46 Z M 365.7 -13.43 L 365.7 -20.4 C 365.7 -20.23 365.84 -20.06 366.04 -20.06 L 367.2 -20.06 C 368.36 -20.06 368.76 -19.65 368.76 -18.56 L 368.76 -15.27 C 368.76 -14.18 368.36 -13.77 367.2 -13.77 L 366.04 -13.77 C 365.84 -13.77 365.7 -13.6 365.7 -13.43 Z M 386.17 -4.9 C 386.17 -2.11 388.45 0.34 391.48 0.34 C 394.33 0.34 396.71 -2.01 396.71 -4.9 L 396.71 -18.9 C 396.71 -21.79 394.33 -24.14 391.48 -24.14 C 388.45 -24.14 386.17 -21.69 386.17 -18.9 Z M 389.91 -4.9 L 389.91 -18.9 C 389.91 -19.99 390.32 -20.4 391.48 -20.4 C 392.56 -20.4 392.97 -19.99 392.97 -18.9 L 392.97 -4.9 C 392.97 -3.81 392.56 -3.4 391.48 -3.4 C 390.32 -3.4 389.91 -3.81 389.91 -4.9 Z M 410.38 -23.46 L 410.38 -0.34 C 410.38 -0.17 410.52 0 410.72 0 L 413.78 0 C 413.95 0 414.12 -0.14 414.12 -0.34 L 414.12 -9.69 C 414.12 -9.89 414.29 -10.03 414.46 -10.03 L 415 -10.03 C 415.21 -10.03 415.38 -9.86 415.41 -9.69 L 417.11 -0.34 C 417.15 -0.17 417.32 0 417.52 0 L 420.58 0 C 420.75 0 420.89 -0.14 420.85 -0.34 L 418.68 -10.61 C 418.64 -10.81 418.74 -11.05 418.88 -11.15 C 420.14 -12.1 420.92 -13.6 420.92 -15.27 L 420.92 -18.56 C 420.92 -21.35 418.64 -23.8 415.62 -23.8 L 410.72 -23.8 C 410.55 -23.8 410.38 -23.66 410.38 -23.46 Z M 414.12 -14.11 L 414.12 -14.11 L 414.12 -19.72 C 414.12 -19.92 414.29 -20.06 414.46 -20.06 L 415.62 -20.06 C 416.77 -20.06 417.18 -19.65 417.18 -18.56 L 417.18 -15.27 C 417.18 -14.18 416.77 -13.77 415.62 -13.77 L 414.46 -13.77 C 414.26 -13.77 414.12 -13.94 414.12 -14.11 Z M 434.59 -23.46 L 434.59 -20.4 C 434.59 -20.2 434.76 -20.06 434.93 -20.06 L 437.65 -20.06 C 437.82 -20.06 437.99 -19.92 437.99 -19.72 L 437.99 -0.34 C 437.99 -0.17 438.12 0 438.33 0 L 441.39 0 C 441.56 0 441.73 -0.14 441.73 -0.34 L 441.73 -19.72 C 441.73 -19.89 441.86 -20.06 442.07 -20.06 L 444.79 -20.06 C 444.96 -20.06 445.13 -20.2 445.13 -20.4 L 445.13 -23.46 C 445.13 -23.63 444.99 -23.8 444.79 -23.8 L 434.93 -23.8 C 434.72 -23.8 434.59 -23.63 434.59 -23.46 Z M 458.8 -23.46 L 458.8 -0.34 C 458.8 -0.17 458.93 0 459.14 0 L 462.2 0 C 462.37 0 462.54 -0.14 462.54 -0.34 L 462.54 -23.46 C 462.54 -23.63 462.4 -23.8 462.2 -23.8 L 459.14 -23.8 C 458.97 -23.8 458.8 -23.66 458.8 -23.46 Z M 475.86 -23.46 L 479.47 -0.34 C 479.5 -0.17 479.67 0 479.88 0 L 482.94 0 C 483.11 0 483.31 -0.14 483.34 -0.34 L 486.95 -23.46 C 486.98 -23.63 486.88 -23.8 486.68 -23.8 L 483.62 -23.8 C 483.45 -23.8 483.24 -23.66 483.24 -23.46 L 481.44 -9.55 C 481.44 -9.35 481.37 -9.38 481.37 -9.55 L 479.57 -23.46 C 479.57 -23.63 479.4 -23.8 479.2 -23.8 L 476.14 -23.8 C 475.97 -23.8 475.83 -23.66 475.86 -23.46 Z M 498.51 0 L 501.57 0 C 501.77 0 501.94 -0.17 501.94 -0.34 L 502.32 -3.06 C 502.32 -3.26 502.52 -3.4 502.69 -3.4 L 504.87 -3.4 C 505.07 -3.4 505.24 -3.23 505.24 -3.06 L 505.61 -0.34 C 505.61 -0.14 505.82 0 505.99 0 L 509.05 0 C 509.25 0 509.35 -0.17 509.32 -0.34 L 505.72 -23.46 C 505.68 -23.66 505.48 -23.8 505.31 -23.8 L 502.25 -23.8 C 502.04 -23.8 501.87 -23.63 501.84 -23.46 L 498.24 -0.34 C 498.2 -0.14 498.34 0 498.51 0 Z M 502.86 -7.48 L 502.86 -7.48 L 503.74 -14.25 C 503.74 -14.45 503.81 -14.42 503.81 -14.25 L 504.7 -7.48 C 504.7 -7.28 504.56 -7.14 504.39 -7.14 L 503.17 -7.14 C 502.96 -7.14 502.86 -7.31 502.86 -7.48 Z M 529.79 -16.12 L 532.85 -16.12 C 533.02 -16.12 533.19 -16.25 533.19 -16.46 L 533.19 -18.9 C 533.19 -21.79 530.81 -24.14 527.95 -24.14 C 524.93 -24.14 522.65 -21.69 522.65 -18.9 L 522.65 -16.12 C 522.65 -11.9 529.45 -9.96 529.45 -7.68 L 529.45 -4.9 C 529.45 -3.81 529.04 -3.4 527.88 -3.4 C 526.8 -3.4 526.39 -3.81 526.39 -4.9 L 526.39 -7.34 C 526.39 -7.55 526.22 -7.68 526.05 -7.68 L 522.99 -7.68 C 522.78 -7.68 522.65 -7.51 522.65 -7.34 L 522.65 -4.9 C 522.65 -2.01 525.03 0.34 527.88 0.34 C 530.91 0.34 533.19 -2.11 533.19 -4.9 L 533.19 -7.68 C 533.19 -12.07 526.39 -14.01 526.39 -16.12 L 526.39 -18.9 C 526.39 -19.99 526.8 -20.4 527.95 -20.4 C 529.04 -20.4 529.45 -19.99 529.45 -18.9 L 529.45 -16.46 C 529.45 -16.29 529.58 -16.12 529.79 -16.12 Z" stroke-linecap="round" />
</g>
</g>
</g>
<g transform="matrix(1.9211538461538462 0 0 1.9211538461538462 640.6188622250418 738.715653372507)" id="tagline-b621d29e-823c-4ae7-9a2a-50745e6683bc-logo"  >
<g style=""  paint-order="stroke"   >
		<g transform="matrix(1 0 0 1 0 0)" id="tagline-b621d29e-823c-4ae7-9a2a-50745e6683bc-logo-path-0"  >
<path style="stroke: none; stroke-width: 0.4493714412640076; stroke-dasharray: none; stroke-linecap: butt; stroke-dashoffset: 0; stroke-linejoin: miter; stroke-miterlimit: 4; fill: rgb(255,255,255); fill-rule: nonzero; opacity: 1;"  paint-order="stroke"  transform=" translate(-126.41000000000001, 8.4)" d="M 6 0.24 C 8.26 0.24 10.08 -0.38 10.08 -3.6 L 10.08 -4.08 C 10.08 -7.94 3.6 -10.42 3.6 -12.72 C 3.6 -14.9 4.54 -15.36 6 -15.36 C 7.46 -15.36 8.4 -14.9 8.4 -12.72 L 8.4 -11.76 L 10.08 -11.76 L 10.08 -13.2 C 10.08 -16.42 8.28 -17.04 6 -17.04 C 3.74 -17.04 1.92 -16.42 1.92 -13.2 L 1.92 -12.72 C 1.92 -9.26 8.4 -6.79 8.4 -4.08 C 8.4 -1.9 7.46 -1.44 6 -1.44 C 4.54 -1.44 3.6 -1.9 3.6 -4.08 L 3.6 -5.33 L 1.92 -5.33 L 1.92 -3.6 C 1.92 -0.43 3.72 0.24 6 0.24 Z M 33.48 -16.8 L 29.64 -16.8 L 29.64 -15.36 L 30.72 -15.36 L 30.72 -1.44 L 29.64 -1.44 L 29.64 0 L 33.48 0 L 33.48 -1.44 L 32.4 -1.44 L 32.4 -15.36 L 33.48 -15.36 Z M 53.52 -16.8 L 53.52 0 L 55.2 0 L 55.2 -12.72 L 60.43 0 L 62.11 0 L 62.11 -16.8 L 60.43 -16.8 L 60.43 -4.08 L 55.2 -16.8 Z M 88.99 -12.72 L 88.99 -10.32 L 90.67 -10.32 L 90.67 -13.2 C 90.67 -16.42 88.87 -17.04 86.59 -17.04 C 84.34 -17.04 82.51 -16.42 82.51 -13.2 L 82.51 -3.6 C 82.51 -0.38 84.34 0.24 86.59 0.24 C 88.87 0.24 90.67 -0.43 90.67 -3.6 L 90.67 -4.61 L 88.99 -4.61 L 88.99 -4.08 C 88.99 -1.9 88.06 -1.44 86.59 -1.44 C 85.13 -1.44 84.19 -1.9 84.19 -4.08 L 84.19 -12.72 C 84.19 -14.9 85.13 -15.36 86.59 -15.36 C 88.06 -15.36 88.99 -14.9 88.99 -12.72 Z M 110.83 -16.8 L 110.83 0 L 118.03 0 L 118.03 -1.44 L 112.51 -1.44 L 112.51 -7.68 L 116.59 -7.68 L 116.59 -9.12 L 112.51 -9.12 L 112.51 -15.36 L 117.79 -15.36 L 117.79 -16.8 Z M 166.27 -1.44 L 160.15 -1.44 L 165.29 -8.69 C 166.01 -9.72 166.27 -10.61 166.27 -11.83 L 166.27 -12 C 166.27 -15.22 164.71 -15.84 162.43 -15.84 C 160.15 -15.84 158.35 -15.22 158.35 -12 L 158.35 -11.4 L 160.03 -11.4 L 160.03 -11.76 C 160.03 -13.94 160.97 -14.4 162.43 -14.4 C 163.9 -14.4 164.59 -13.94 164.59 -11.76 L 164.59 -11.66 C 164.59 -10.9 164.4 -10.37 163.97 -9.74 L 158.11 -1.44 L 158.11 0 L 166.27 0 Z M 186.24 -12 L 186.24 -3.6 C 186.24 -0.38 188.06 0.24 190.32 0.24 C 192.6 0.24 194.4 -0.43 194.4 -3.6 L 194.4 -12 C 194.4 -15.22 192.6 -15.84 190.32 -15.84 C 188.06 -15.84 186.24 -15.22 186.24 -12 Z M 187.92 -4.08 L 187.92 -11.52 C 187.92 -13.7 188.86 -14.16 190.32 -14.16 C 191.78 -14.16 192.72 -13.7 192.72 -11.52 L 192.72 -4.08 C 192.72 -1.9 191.78 -1.44 190.32 -1.44 C 188.86 -1.44 187.92 -1.9 187.92 -4.08 Z M 222.72 -1.44 L 216.6 -1.44 L 221.74 -8.69 C 222.46 -9.72 222.72 -10.61 222.72 -11.83 L 222.72 -12 C 222.72 -15.22 221.16 -15.84 218.88 -15.84 C 216.6 -15.84 214.8 -15.22 214.8 -12 L 214.8 -11.4 L 216.48 -11.4 L 216.48 -11.76 C 216.48 -13.94 217.42 -14.4 218.88 -14.4 C 220.34 -14.4 221.04 -13.94 221.04 -11.76 L 221.04 -11.66 C 221.04 -10.9 220.85 -10.37 220.42 -9.74 L 214.56 -1.44 L 214.56 0 L 222.72 0 Z M 246.82 0.24 C 249.1 0.24 250.9 -0.43 250.9 -3.6 L 250.9 -5.04 C 250.9 -6.89 250.3 -7.73 249.34 -8.09 C 250.15 -8.52 250.66 -9.36 250.66 -11.04 L 250.66 -12 C 250.66 -15.22 249.1 -15.84 246.82 -15.84 C 244.54 -15.84 242.74 -15.22 242.74 -12 L 242.74 -11.4 L 244.42 -11.4 L 244.42 -11.76 C 244.42 -13.94 245.35 -14.4 246.82 -14.4 C 248.28 -14.4 248.98 -13.94 248.98 -11.76 L 248.98 -11.28 C 248.98 -9.1 248.04 -8.64 246.58 -8.64 L 244.9 -8.64 L 244.9 -7.44 L 246.82 -7.44 C 248.28 -7.44 249.22 -6.98 249.22 -4.56 L 249.22 -3.84 C 249.22 -1.66 248.28 -1.2 246.82 -1.2 C 245.35 -1.2 244.42 -1.66 244.42 -3.84 L 244.42 -4.92 L 242.74 -4.92 L 242.74 -3.6 C 242.74 -0.43 244.54 0.24 246.82 0.24 Z" stroke-linecap="round" />
</g>
</g>
</g>
</svg>